<svg xmlns="http://www.w3.org/2000/svg" width="32" height="32" viewBox="0 0 100 110">
  <defs>
    <linearGradient id="bgGrad" x1="0%" y1="0%" x2="100%" y2="100%">
      <stop offset="0%" style="stop-color:#1B4F72;stop-opacity:1" />
      <stop offset="100%" style="stop-color:#2E86C1;stop-opacity:1" />
    </linearGradient>
    <linearGradient id="accentGrad" x1="0%" y1="0%" x2="100%" y2="0%">
      <stop offset="0%" style="stop-color:#F39C12;stop-opacity:1" />
      <stop offset="100%" style="stop-color:#F1C40F;stop-opacity:1" />
    </linearGradient>
  </defs>
  <path d="M18 22 L24 90 C24.5 95 28 98 33 98 L63 98 C68 98 71.5 95 72 90 L78 22 Z" fill="url(#bgGrad)"/>
  <rect x="14" y="16" width="68" height="10" rx="5" fill="url(#bgGrad)"/>
  <path d="M48 22 L48 98" stroke="url(#accentGrad)" stroke-width="4"/>
  <path d="M18 55 L78 55" stroke="url(#accentGrad)" stroke-width="4"/>
  <path d="M48 55 C40 45 30 42 36 36 C42 30 46 40 48 48" fill="#F39C12" stroke="#E67E22" stroke-width="1"/>
  <path d="M48 55 C56 45 66 42 60 36 C54 30 50 40 48 48" fill="#F1C40F" stroke="#E67E22" stroke-width="1"/>
  <circle cx="70" cy="20" r="3" fill="#F39C12" opacity="0.8"/>
  <circle cx="26" cy="14" r="2" fill="#F1C40F" opacity="0.6"/>
</svg>
